<svg xmlns="http://www.w3.org/2000/svg" width="15" height="10" viewBox="0 0 15 10"><metadata><?xpacket begin="﻿" id="W5M0MpCehiHzreSzNTczkc9d"?><x:xmpmeta xmlns:x="adobe:ns:meta/" x:xmptk="Adobe XMP Core 5.6-c142 79.160924, 2017/07/13-01:06:39        "><rdf:RDF xmlns:rdf="http://www.w3.org/1999/02/22-rdf-syntax-ns#"><rdf:Description rdf:about=""/></rdf:RDF></x:xmpmeta><?xpacket end="w"?></metadata><defs></defs><path id="envelope" class="cls-1" d="M715.741,3519a0.443,0.443,0,0,1,.259.79l-6.077,4.78a0.683,0.683,0,0,1-.854,0l-6.063-4.78a0.443,0.443,0,0,1,.259-0.79h12.476Zm0.554,1.69a0.43,0.43,0,0,1,.7.35v7.04a0.9,0.9,0,0,1-.888.92H702.9a0.9,0.9,0,0,1-.887-0.92v-7.04a0.433,0.433,0,0,1,.7-0.35l6.168,5.02a0.984,0.984,0,0,0,1.234,0Z" transform="translate(-702 -3519)"/></svg>
